<?xml version="1.0" encoding="utf-8"?>
<!-- Generator: Adobe Illustrator 27.4.1, SVG Export Plug-In . SVG Version: 6.00 Build 0)  -->
<svg version="1.1" id="Layer_1" xmlns="http://www.w3.org/2000/svg" xmlns:xlink="http://www.w3.org/1999/xlink" x="0px" y="0px"
	 viewBox="0 0 412.25 489.53" style="enable-background:new 0 0 412.25 489.53;" xml:space="preserve">
<style type="text/css">
	.st0{fill:url(#SVGID_1_);}
	.st1{fill:#010101;}
	.st2{fill:none;stroke:#FFFFFF;stroke-width:4;stroke-miterlimit:10;}
	.st3{fill-rule:evenodd;clip-rule:evenodd;fill:url(#SVGID_00000014623071421907019560000010265577746298205591_);}
	.st4{fill-rule:evenodd;clip-rule:evenodd;fill:url(#SVGID_00000022543075242643656300000002582656954253402255_);}
	.st5{fill-rule:evenodd;clip-rule:evenodd;fill:url(#SVGID_00000094613093826566713040000016929143681834584990_);}
	.st6{fill-rule:evenodd;clip-rule:evenodd;fill:url(#SVGID_00000168096348388339769520000004349309044650205624_);}
	.st7{fill:#FFFFFF;}
</style>
<linearGradient id="SVGID_1_" gradientUnits="userSpaceOnUse" x1="60.4682" y1="258.2382" x2="372.5057" y2="258.2382">
	<stop  offset="0" style="stop-color:#FAE489"/>
	<stop  offset="0.5354" style="stop-color:#B0802D"/>
	<stop  offset="1" style="stop-color:#F5DE83"/>
</linearGradient>
<path class="st0" d="M216.49,414.26c-21.06,0-41.49-4.13-60.73-12.27c-18.58-7.86-35.26-19.11-49.59-33.43
	c-14.32-14.32-25.57-31.01-33.43-49.59c-8.14-19.24-12.27-39.68-12.27-60.73s4.13-41.49,12.27-60.73
	c7.86-18.58,19.11-35.26,33.43-49.59c14.32-14.32,31.01-25.57,49.59-33.43c19.24-8.14,39.68-12.27,60.73-12.27
	c21.06,0,41.49,4.13,60.73,12.27c18.58,7.86,35.26,19.11,49.59,33.43c14.32,14.32,25.57,31.01,33.43,49.59
	c8.14,19.24,12.27,39.68,12.27,60.73s-4.13,41.49-12.27,60.73c-7.86,18.58-19.11,35.26-33.43,49.59
	c-14.32,14.32-31.01,25.57-49.59,33.43C257.98,410.13,237.54,414.26,216.49,414.26z"/>
<circle class="st1" cx="216.49" cy="258.24" r="143.34"/>
<circle class="st2" cx="216.49" cy="258.24" r="129.67"/>
<g>
	
		<linearGradient id="SVGID_00000096040882394998526440000009013114371686436490_" gradientUnits="userSpaceOnUse" x1="194.3722" y1="183.6506" x2="245.7555" y2="183.6506">
		<stop  offset="0" style="stop-color:#FAE489"/>
		<stop  offset="0.5354" style="stop-color:#B0802D"/>
		<stop  offset="1" style="stop-color:#F5DE83"/>
	</linearGradient>
	<path style="fill-rule:evenodd;clip-rule:evenodd;fill:url(#SVGID_00000096040882394998526440000009013114371686436490_);" d="
		M200.15,205.89c11.07-14.14,21.98-11.09,31.18-24.6c-3.51,10.68-15.77,21.88-36.78,33.6c44.18-11.32,59.77-32.15,46.77-62.49
		C228.67,179.81,177.32,175.27,200.15,205.89"/>
	
		<linearGradient id="SVGID_00000004536296488831782710000002356828973328569243_" gradientUnits="userSpaceOnUse" x1="252.7712" y1="105.1308" x2="156.7596" y2="336.9637">
		<stop  offset="0" style="stop-color:#FAE489"/>
		<stop  offset="0.5354" style="stop-color:#B0802D"/>
		<stop  offset="1" style="stop-color:#F5DE83"/>
	</linearGradient>
	<path style="fill-rule:evenodd;clip-rule:evenodd;fill:url(#SVGID_00000004536296488831782710000002356828973328569243_);" d="
		M189.96,219.54c2.4,22.78-0.22,41.09-7.86,54.94c-3.95,11.78-13.27,23.68-31.91,35.3C217.54,300.89,199.53,257.49,189.96,219.54"/>
	
		<linearGradient id="SVGID_00000054260393332703102490000005281167524374330535_" gradientUnits="userSpaceOnUse" x1="234.4611" y1="97.5478" x2="138.4495" y2="329.3807">
		<stop  offset="0" style="stop-color:#FAE489"/>
		<stop  offset="0.5354" style="stop-color:#B0802D"/>
		<stop  offset="1" style="stop-color:#F5DE83"/>
	</linearGradient>
	<path style="fill-rule:evenodd;clip-rule:evenodd;fill:url(#SVGID_00000054260393332703102490000005281167524374330535_);" d="
		M182.1,274.48c7.64-13.84,10.26-32.16,7.86-54.94c-4.33-17.18-6.94-33.24,0.89-44.48C148.37,196.82,195.35,234.98,182.1,274.48"/>
	
		<linearGradient id="SVGID_00000042729343805481552140000006500109993501068685_" gradientUnits="userSpaceOnUse" x1="271.1595" y1="112.7462" x2="175.1479" y2="344.579">
		<stop  offset="0" style="stop-color:#FAE489"/>
		<stop  offset="0.5354" style="stop-color:#B0802D"/>
		<stop  offset="1" style="stop-color:#F5DE83"/>
	</linearGradient>
	<path style="fill-rule:evenodd;clip-rule:evenodd;fill:url(#SVGID_00000042729343805481552140000006500109993501068685_);" d="
		M207.46,255.64c5.92-10.58,13.51-9.68,18.25-19.65c-1.23,7.49-8.25,16.23-21.05,26.24c28.3-12.14,36.54-27.65,24.72-46.55
		C223.78,235.28,189.05,237.58,207.46,255.64"/>
</g>
<g>
	<path class="st7" d="M220.68,304.42l-1.47-3.85h-12.48l-1.46,3.94c-0.57,1.54-1.06,2.57-1.47,3.11c-0.41,0.54-1.07,0.81-1.99,0.81
		c-0.78,0-1.47-0.29-2.07-0.86c-0.6-0.57-0.9-1.22-0.9-1.95c0-0.42,0.07-0.85,0.21-1.3s0.37-1.07,0.69-1.86l7.85-19.93
		c0.22-0.57,0.49-1.26,0.81-2.06c0.31-0.8,0.65-1.47,1-2c0.36-0.53,0.82-0.96,1.4-1.29c0.58-0.33,1.29-0.49,2.15-0.49
		c0.87,0,1.59,0.16,2.17,0.49c0.58,0.33,1.05,0.75,1.4,1.27c0.36,0.52,0.66,1.07,0.9,1.67s0.55,1.38,0.93,2.38l8.02,19.8
		c0.63,1.51,0.94,2.6,0.94,3.29c0,0.71-0.3,1.36-0.89,1.96c-0.59,0.59-1.31,0.89-2.15,0.89c-0.49,0-0.91-0.09-1.26-0.26
		c-0.35-0.17-0.64-0.41-0.88-0.71c-0.24-0.3-0.49-0.76-0.76-1.38S220.88,304.9,220.68,304.42z M208.37,295.9h9.17l-4.63-12.67
		L208.37,295.9z"/>
	<path class="st7" d="M242.24,303.27l-4.92-19.55v21.19c0,1.17-0.26,2.05-0.79,2.64c-0.52,0.59-1.22,0.88-2.08,0.88
		c-0.84,0-1.52-0.29-2.05-0.87s-0.8-1.46-0.8-2.65v-24.29c0-1.34,0.35-2.24,1.05-2.71s1.64-0.7,2.83-0.7h1.93
		c1.16,0,2,0.1,2.52,0.31c0.52,0.21,0.91,0.59,1.16,1.13c0.25,0.54,0.54,1.43,0.86,2.66l4.46,16.81l4.46-16.81
		c0.32-1.23,0.61-2.12,0.86-2.66c0.25-0.54,0.64-0.92,1.16-1.13c0.52-0.21,1.36-0.31,2.52-0.31h1.93c1.19,0,2.13,0.23,2.83,0.7
		c0.7,0.47,1.05,1.37,1.05,2.71v24.29c0,1.17-0.26,2.05-0.79,2.64c-0.52,0.59-1.22,0.88-2.1,0.88c-0.82,0-1.5-0.29-2.03-0.88
		c-0.53-0.59-0.8-1.46-0.8-2.64v-21.19l-4.92,19.55c-0.32,1.27-0.58,2.2-0.79,2.79c-0.2,0.59-0.58,1.13-1.12,1.62
		c-0.54,0.49-1.3,0.73-2.26,0.73c-0.73,0-1.34-0.16-1.84-0.47c-0.5-0.31-0.89-0.71-1.17-1.2s-0.5-1.03-0.66-1.62
		C242.58,304.53,242.41,303.91,242.24,303.27z"/>
</g>
<g>
	<path class="st7" d="M135.43,335.02c0.53-0.02,0.92-0.1,1.15-0.25c0.39-0.24,0.59-0.69,0.59-1.36v-11.05
		c0-0.66-0.18-1.11-0.55-1.34c-0.22-0.14-0.61-0.23-1.19-0.27v-0.58h6.11c1.18,0,2.16,0.16,2.93,0.47c1.47,0.59,2.2,1.66,2.2,3.21
		c0,0.94-0.3,1.69-0.89,2.24c-0.59,0.55-1.24,0.9-1.94,1.05v0.21c0.73,0.16,1.37,0.44,1.91,0.82c1.06,0.76,1.58,1.81,1.58,3.16
		c0,1.26-0.5,2.28-1.51,3.07c-1.01,0.78-2.36,1.17-4.04,1.17h-6.36V335.02z M142.78,326.41c0.42-0.46,0.63-1.28,0.63-2.45
		c0-0.87-0.14-1.6-0.41-2.19c-0.27-0.59-0.8-0.89-1.58-0.89c-0.41,0-0.7,0.08-0.86,0.24c-0.16,0.16-0.24,0.45-0.24,0.86v5.12
		C141.54,327.1,142.36,326.87,142.78,326.41z M140.48,334.37c0.16,0.33,0.47,0.49,0.93,0.49c0.93,0,1.59-0.29,1.96-0.88
		c0.38-0.59,0.56-1.42,0.56-2.5c0-1.62-0.42-2.69-1.25-3.23c-0.5-0.33-1.29-0.48-2.36-0.46v5.7
		C140.33,333.89,140.38,334.19,140.48,334.37z"/>
	<path class="st7" d="M149.6,335.6v-0.58c0.57-0.02,0.97-0.11,1.21-0.27c0.37-0.24,0.55-0.68,0.55-1.34v-11.05
		c0-0.66-0.19-1.11-0.57-1.34c-0.22-0.14-0.61-0.23-1.19-0.27v-0.58h11.39v4.6h-0.48c-0.25-1.47-0.68-2.48-1.28-3.02
		c-0.6-0.54-1.7-0.81-3.29-0.81c-0.61,0-0.99,0.07-1.15,0.22c-0.16,0.15-0.25,0.43-0.25,0.86v5.28c1.13,0.01,1.89-0.22,2.29-0.71
		c0.4-0.49,0.7-1.38,0.92-2.67h0.5v7.71h-0.5c-0.14-1.3-0.43-2.21-0.86-2.75c-0.43-0.53-1.21-0.8-2.34-0.8v5.52
		c0,0.48,0.11,0.81,0.32,0.99c0.21,0.17,0.66,0.26,1.33,0.26c1.26,0,2.29-0.28,3.09-0.85s1.51-1.62,2.12-3.17h0.55l-0.8,4.74H149.6z
		"/>
	<path class="st7" d="M163.81,335.02c0.48-0.04,0.86-0.29,1.15-0.75c0.19-0.29,0.45-0.93,0.8-1.92l4.39-12.48h0.55l4.41,11.98
		c0.5,1.34,0.87,2.21,1.11,2.6c0.24,0.39,0.59,0.58,1.04,0.56v0.58h-6.4v-0.58c0.64-0.03,1.07-0.09,1.27-0.19
		c0.2-0.1,0.3-0.34,0.3-0.74c0-0.18-0.05-0.45-0.15-0.81c-0.06-0.21-0.15-0.47-0.26-0.78l-0.5-1.38h-4.44
		c-0.29,0.91-0.48,1.5-0.56,1.77c-0.17,0.59-0.26,1.01-0.26,1.28c0,0.33,0.19,0.56,0.57,0.71c0.23,0.08,0.56,0.13,1.01,0.13v0.58
		h-4.03V335.02z M171.23,330.22l-1.9-5.28h-0.17l-1.78,5.28H171.23z"/>
	<path class="st7" d="M185.72,320.19v0.58c-0.77,0.03-1.28,0.17-1.53,0.41c-0.26,0.24-0.39,0.8-0.39,1.67v7.64
		c0,1.16,0.12,2.06,0.36,2.69c0.43,1.17,1.26,1.76,2.48,1.76c1.52,0,2.54-0.65,3.08-1.95c0.3-0.71,0.44-1.71,0.44-3v-6.98
		c0-0.82-0.13-1.38-0.39-1.69c-0.26-0.31-0.77-0.5-1.53-0.56v-0.58h4.34v0.58c-0.63,0.14-1.05,0.31-1.25,0.52
		c-0.2,0.21-0.3,0.67-0.3,1.41v7.29c0,1.94-0.41,3.43-1.22,4.49c-0.81,1.05-2.08,1.58-3.82,1.58c-2.27,0-3.83-0.78-4.66-2.35
		c-0.44-0.83-0.67-1.91-0.67-3.22v-7.63c0-0.86-0.1-1.4-0.29-1.62c-0.2-0.22-0.64-0.38-1.33-0.47v-0.58H185.72z"/>
	<path class="st7" d="M194.5,320.19h11.9l0.02,4.6h-0.57c-0.19-1.64-0.72-2.76-1.6-3.34c-0.5-0.32-1.24-0.49-2.22-0.52v12.01
		c0,0.84,0.13,1.4,0.38,1.67c0.25,0.27,0.78,0.41,1.59,0.41v0.58h-7.05v-0.58c0.77,0,1.29-0.14,1.54-0.42
		c0.25-0.28,0.38-0.83,0.38-1.67v-12.01c-0.96,0.03-1.71,0.21-2.22,0.52c-0.95,0.6-1.48,1.71-1.6,3.34h-0.57L194.5,320.19z"/>
	<path class="st7" d="M215.05,320.19v0.58c-0.68,0.04-1.12,0.1-1.31,0.18c-0.19,0.07-0.29,0.23-0.29,0.47c0,0.1,0.02,0.22,0.05,0.34
		c0.04,0.12,0.12,0.34,0.25,0.66l2.61,5.48h0.02l2.12-4.01c0.13-0.25,0.28-0.55,0.42-0.9c0.22-0.54,0.34-0.94,0.34-1.2
		c0-0.4-0.14-0.67-0.42-0.8c-0.19-0.09-0.6-0.16-1.24-0.21v-0.58h4.34v0.58c-0.32,0.07-0.57,0.14-0.75,0.23
		c-0.24,0.14-0.44,0.36-0.6,0.65l-3.77,7.09v4.2c0,0.87,0.13,1.43,0.38,1.68c0.26,0.25,0.74,0.38,1.44,0.41v0.58h-6.85v-0.58
		c0.73-0.02,1.22-0.17,1.46-0.43c0.24-0.27,0.36-0.82,0.36-1.65v-3.35l-3.61-7.57c-0.24-0.5-0.53-0.85-0.88-1.05
		c-0.23-0.13-0.47-0.19-0.7-0.2v-0.58H215.05z"/>
	<path class="st7" d="M238.77,320.43c0.84,0.35,1.31,0.53,1.41,0.53c0.25,0,0.45-0.11,0.6-0.33s0.25-0.46,0.29-0.7h0.55v5.33h-0.5
		c-0.48-1.16-0.96-2.07-1.46-2.74c-0.92-1.23-1.97-1.85-3.14-1.85c-1.32,0-2.26,0.66-2.82,1.98c-0.56,1.32-0.83,3.09-0.83,5.31
		c0,1.63,0.16,2.98,0.49,4.03c0.61,1.97,1.75,2.96,3.4,2.96c1.02,0,1.96-0.33,2.83-0.98c0.5-0.38,1.09-0.98,1.77-1.82l0.59,0.56
		c-0.77,1-1.45,1.71-2.04,2.16c-1.04,0.79-2.2,1.19-3.47,1.19c-1.95,0-3.58-0.67-4.9-2c-1.46-1.48-2.19-3.47-2.19-5.97
		c0-2.48,0.7-4.49,2.09-6.02c1.31-1.44,2.92-2.16,4.83-2.16C237.09,319.9,237.92,320.07,238.77,320.43z"/>
	<path class="st7" d="M244.21,335.05c0.35-0.1,0.59-0.22,0.74-0.38c0.14-0.16,0.22-0.49,0.22-1v-11.61c0-0.49-0.07-0.81-0.2-0.96
		c-0.13-0.15-0.39-0.27-0.75-0.37v-0.55h3.75v13.48c0,0.5,0.07,0.83,0.21,0.99s0.39,0.29,0.75,0.39v0.55h-4.71V335.05z"/>
	<path class="st7" d="M250.68,335.02c0.56-0.01,0.96-0.09,1.21-0.23c0.4-0.24,0.6-0.69,0.6-1.37v-11.05c0-0.67-0.19-1.12-0.57-1.35
		c-0.23-0.14-0.64-0.22-1.24-0.25v-0.58h6.91v0.58c-0.62,0.03-1.04,0.11-1.27,0.24c-0.39,0.23-0.58,0.68-0.58,1.36v11.05
		c0,0.64,0.15,1.07,0.46,1.28c0.31,0.22,0.77,0.32,1.39,0.32v0.58h-6.91V335.02z"/>
	<path class="st7" d="M259.37,335.02c0.73-0.02,1.21-0.18,1.42-0.48s0.32-0.74,0.32-1.33v-10.8c-0.6-0.78-0.98-1.24-1.12-1.38
		c-0.14-0.14-0.33-0.22-0.58-0.26v-0.58h4.19l6.79,9.53h0.1v-6.7c0-0.77-0.12-1.32-0.37-1.65c-0.24-0.33-0.73-0.53-1.46-0.6v-0.58
		h4.25v0.58c-0.62,0.12-1.03,0.28-1.24,0.48c-0.21,0.2-0.31,0.65-0.31,1.34v13.44h-0.55l-8.7-12.19h-0.13v8.94
		c0,0.7,0.08,1.2,0.25,1.49c0.26,0.47,0.8,0.72,1.62,0.76v0.58h-4.48V335.02z"/>
	<path class="st7" d="M274.63,335.02c0.56-0.01,0.96-0.09,1.21-0.23c0.4-0.24,0.6-0.69,0.6-1.37v-11.05c0-0.67-0.19-1.12-0.57-1.35
		c-0.23-0.14-0.64-0.22-1.24-0.25v-0.58h6.91v0.58c-0.62,0.03-1.04,0.11-1.27,0.24c-0.39,0.23-0.58,0.68-0.58,1.36v11.05
		c0,0.64,0.15,1.07,0.46,1.28c0.31,0.22,0.77,0.32,1.39,0.32v0.58h-6.91V335.02z"/>
	<path class="st7" d="M293.13,320.43c0.84,0.35,1.31,0.53,1.41,0.53c0.25,0,0.45-0.11,0.6-0.33s0.25-0.46,0.29-0.7h0.55v5.33h-0.5
		c-0.48-1.16-0.96-2.07-1.46-2.74c-0.92-1.23-1.97-1.85-3.14-1.85c-1.32,0-2.26,0.66-2.82,1.98c-0.56,1.32-0.83,3.09-0.83,5.31
		c0,1.63,0.16,2.98,0.49,4.03c0.61,1.97,1.75,2.96,3.4,2.96c1.02,0,1.96-0.33,2.83-0.98c0.5-0.38,1.09-0.98,1.77-1.82l0.59,0.56
		c-0.77,1-1.45,1.71-2.04,2.16c-1.04,0.79-2.2,1.19-3.47,1.19c-1.95,0-3.58-0.67-4.9-2c-1.46-1.48-2.19-3.47-2.19-5.97
		c0-2.48,0.7-4.49,2.09-6.02c1.31-1.44,2.92-2.16,4.83-2.16C291.46,319.9,292.29,320.07,293.13,320.43z"/>
</g>
</svg>
