<?xml version="1.0" encoding="utf-8"?>
<!-- Generator: Adobe Illustrator 27.4.1, SVG Export Plug-In . SVG Version: 6.00 Build 0)  -->
<svg version="1.1" id="Layer_1" xmlns="http://www.w3.org/2000/svg" xmlns:xlink="http://www.w3.org/1999/xlink" x="0px" y="0px"
	 viewBox="0 0 412.25 489.53" style="enable-background:new 0 0 412.25 489.53;" xml:space="preserve">
<style type="text/css">
	.st0{fill-rule:evenodd;clip-rule:evenodd;fill:url(#SVGID_1_);}
	.st1{fill-rule:evenodd;clip-rule:evenodd;fill:url(#SVGID_00000070818157839983833340000005396453289276669119_);}
	.st2{fill-rule:evenodd;clip-rule:evenodd;fill:url(#SVGID_00000020372632609281391230000016970465376911729846_);}
	.st3{fill:#FFFFFF;}
</style>
<path d="M331.64,390.06c-0.59,0-1.18,0.03-1.76,0.08c-0.06,0.01-0.13,0.01-0.19,0c-0.58-0.05-1.17-0.08-1.76-0.08h-9.17
	c-0.12,0-0.24,0.01-0.36,0.01c1.87-3.39,3.37-7.96,3.37-13.91v-52.44c0-12.64-6.72-19.03-10.73-21.72
	c-4.7-3.15-10.33-4.74-16.73-4.74h-4.16c-5.07,0-9.05,0.65-12.54,2.04c-2.2,0.88-4.23,2.07-6.05,3.53c-0.5,0.41-1.21,0.41-1.71,0
	c-1.81-1.46-3.84-2.65-6.05-3.53c-3.49-1.39-7.47-2.04-12.54-2.04h-4.16c-6.4,0-12.03,1.6-16.73,4.75c-1.82,1.22-4.19,3.2-6.24,6.18
	c-0.54,0.78-1.68,0.8-2.22,0.02l-0.01-0.02c-2.42-3.51-5.56-6.37-9.36-8.53c-2.56-1.45-5.35-2.45-8.32-3
	c-1.24-0.23-1.46-1.91-0.34-2.48c31.62-16.13,50.51-35.02,57.52-57.45c6.27-20.05,2.48-41.37-11.28-63.37
	c-1.35-2.16-3.09-3.98-5.09-5.4c-0.76-0.54-0.77-1.65-0.01-2.18c15.75-11.19,27.34-24.21,34.54-38.82
	c12.51-25.4,11.75-54.89-2.28-87.63c-2.97-6.93-9.74-11.47-17.29-11.58c-0.09,0-0.18,0-0.27,0c-7.44,0-14.21,4.32-17.34,11.09
	c-8.53,18.46-30.11,29.06-50.98,39.32c-7.15,3.52-14.39,7.07-21.09,11.04c-0.7,0.41-1.59,0.11-1.9-0.65
	c-0.78-1.91-1.88-3.72-3.29-5.34c-3.72-4.26-9.01-6.54-14.39-6.54c-2.95,0-5.93,0.68-8.7,2.1c-30.3,15.52-46.41,36.54-49.27,64.27
	c-2.34,22.72,4.69,45.66,12.12,69.95c9.27,30.26,18.85,61.55,8.83,91.38c-8.03,23.94-27.96,45.56-60.9,66.1
	c-6.29,3.92-9.62,11.02-8.9,18.13c0.08,0.78-0.53,1.47-1.32,1.47H31.04h-6.02c-4.81,0-4.23,3.81-4.23,4.55v65.24
	c0,0.71,0.56,1.3,1.28,1.33l8.98,0.36l322.75-1.42h31.33c0.08,0,0.14-0.06,0.14-0.14v-63.83c0-3.2-2.61-5.84-5.82-5.87
	C365.18,390.16,331.64,390.06,331.64,390.06z"/>
<g>
	<g>
		<linearGradient id="SVGID_1_" gradientUnits="userSpaceOnUse" x1="158.3283" y1="114.3101" x2="269.2886" y2="114.3101">
			<stop  offset="0" style="stop-color:#FBE58B"/>
			<stop  offset="0.5354" style="stop-color:#B27F2C"/>
			<stop  offset="1" style="stop-color:#F6DF85"/>
		</linearGradient>
		<path class="st0" d="M259.72,46.84c-27.33,59.17-138.21,49.38-88.92,115.49c23.91-30.53,47.47-23.96,67.33-53.12
			c-7.58,23.06-34.05,47.25-79.42,72.57C254.12,157.34,287.78,112.36,259.72,46.84z"/>
		
			<linearGradient id="SVGID_00000165917531535165006790000006965174900544039857_" gradientUnits="userSpaceOnUse" x1="62.9081" y1="241.2147" x2="169.4743" y2="241.2147">
			<stop  offset="0" style="stop-color:#FBE58B"/>
			<stop  offset="0.5354" style="stop-color:#B27F2C"/>
			<stop  offset="1" style="stop-color:#F6DF85"/>
		</linearGradient>
		<path style="fill-rule:evenodd;clip-rule:evenodd;fill:url(#SVGID_00000165917531535165006790000006965174900544039857_);" d="
			M150.73,95.76c-91.74,47,9.71,129.4-18.91,214.68c-8.54,25.44-28.65,51.14-68.91,76.23c145.44-19.19,106.56-112.91,85.89-194.86
			C139.44,154.71,133.82,120.02,150.73,95.76z"/>
		
			<linearGradient id="SVGID_00000084488864982546873670000004495835799650185645_" gradientUnits="userSpaceOnUse" x1="175.0819" y1="233.7372" x2="245.2083" y2="233.7372">
			<stop  offset="0" style="stop-color:#FBE58B"/>
			<stop  offset="0.5354" style="stop-color:#B27F2C"/>
			<stop  offset="1" style="stop-color:#F6DF85"/>
		</linearGradient>
		<path style="fill-rule:evenodd;clip-rule:evenodd;fill:url(#SVGID_00000084488864982546873670000004495835799650185645_);" d="
			M186.6,269.77c12.78-22.85,29.18-20.91,39.41-42.43c-2.66,16.17-17.81,35.06-45.45,56.66c61.11-26.21,78.9-59.72,53.37-100.52
			C221.83,225.8,146.84,230.77,186.6,269.77z"/>
	</g>
	<g>
		<path class="st3" d="M215.14,375.12l-3.16-8.32h-26.95l-3.16,8.5c-1.24,3.32-2.29,5.55-3.16,6.71c-0.87,1.16-2.31,1.74-4.29,1.74
			c-1.69,0-3.18-0.62-4.48-1.85c-1.3-1.24-1.94-2.64-1.94-4.2c0-0.9,0.15-1.84,0.45-2.8c0.3-0.96,0.8-2.31,1.49-4.02l16.95-43.04
			c0.48-1.24,1.06-2.72,1.74-4.45c0.68-1.73,1.4-3.17,2.17-4.32c0.77-1.14,1.78-2.07,3.03-2.78c1.25-0.71,2.8-1.06,4.63-1.06
			c1.87,0,3.43,0.35,4.68,1.06c1.25,0.71,2.26,1.62,3.03,2.74c0.77,1.12,1.42,2.31,1.94,3.59c0.53,1.28,1.2,2.99,2.01,5.13
			l17.32,42.77c1.36,3.26,2.03,5.62,2.03,7.1c0,1.54-0.64,2.95-1.92,4.23c-1.28,1.28-2.83,1.92-4.63,1.92
			c-1.06,0-1.96-0.19-2.71-0.57c-0.75-0.38-1.39-0.89-1.9-1.54c-0.51-0.65-1.06-1.64-1.65-2.98
			C216.07,377.33,215.56,376.14,215.14,375.12z M188.56,356.72h19.8l-9.99-27.35L188.56,356.72z"/>
		<path class="st3" d="M261.7,372.63l-10.62-42.23v45.75c0,2.53-0.57,4.43-1.7,5.7c-1.13,1.27-2.63,1.9-4.5,1.9
			c-1.81,0-3.29-0.63-4.43-1.88c-1.15-1.25-1.72-3.16-1.72-5.72v-52.44c0-2.89,0.75-4.84,2.26-5.85c1.51-1.01,3.54-1.51,6.1-1.51
			h4.16c2.5,0,4.32,0.23,5.45,0.68c1.13,0.45,1.97,1.27,2.51,2.44c0.54,1.18,1.16,3.09,1.85,5.74l9.63,36.3l9.63-36.3
			c0.69-2.65,1.31-4.57,1.85-5.74s1.38-1.99,2.51-2.44c1.13-0.45,2.95-0.68,5.45-0.68h4.16c2.56,0,4.6,0.51,6.1,1.51
			c1.51,1.01,2.26,2.96,2.26,5.85v52.44c0,2.53-0.57,4.43-1.7,5.7c-1.13,1.27-2.64,1.9-4.54,1.9c-1.78,0-3.24-0.63-4.39-1.9
			c-1.15-1.27-1.72-3.16-1.72-5.7V330.4l-10.62,42.23c-0.69,2.74-1.26,4.76-1.7,6.04c-0.44,1.28-1.24,2.45-2.42,3.5
			s-2.8,1.58-4.88,1.58c-1.57,0-2.89-0.34-3.98-1.02s-1.93-1.54-2.53-2.6c-0.6-1.06-1.08-2.22-1.42-3.5
			C262.42,375.35,262.07,374.02,261.7,372.63z"/>
	</g>
	<g>
		<path class="st3" d="M31.04,441.18c1.15-0.05,1.98-0.22,2.48-0.53c0.85-0.51,1.27-1.49,1.27-2.93v-23.85c0-1.43-0.4-2.4-1.19-2.89
			c-0.47-0.3-1.33-0.49-2.56-0.57v-1.25h13.19c2.54,0,4.65,0.34,6.34,1.01c3.17,1.27,4.75,3.57,4.75,6.93
			c0,2.04-0.64,3.65-1.93,4.84c-1.29,1.19-2.68,1.95-4.18,2.27v0.46c1.58,0.35,2.96,0.95,4.13,1.78c2.28,1.63,3.42,3.91,3.42,6.83
			c0,2.73-1.09,4.93-3.27,6.62c-2.18,1.69-5.09,2.54-8.71,2.54H31.04V441.18z M46.92,422.59c0.9-0.99,1.35-2.76,1.35-5.29
			c0-1.88-0.3-3.45-0.89-4.74c-0.59-1.28-1.73-1.92-3.41-1.92c-0.89,0-1.51,0.17-1.85,0.52c-0.35,0.34-0.52,0.97-0.52,1.86v11.06
			C44.25,424.08,46.02,423.59,46.92,422.59z M41.94,439.79c0.35,0.71,1.01,1.06,2,1.06c2.01,0,3.43-0.63,4.24-1.9
			c0.81-1.27,1.22-3.07,1.22-5.41c0-3.49-0.9-5.82-2.69-6.97c-1.08-0.71-2.79-1.03-5.11-0.99v12.31
			C41.62,438.75,41.73,439.39,41.94,439.79z"/>
		<path class="st3" d="M61.65,442.43v-1.25c1.22-0.05,2.09-0.24,2.61-0.58c0.79-0.51,1.19-1.47,1.19-2.89v-23.85
			c0-1.43-0.41-2.4-1.23-2.89c-0.47-0.3-1.33-0.49-2.56-0.57v-1.25h24.59v9.93H85.2c-0.54-3.17-1.46-5.35-2.76-6.52
			c-1.3-1.17-3.66-1.76-7.1-1.76c-1.31,0-2.14,0.16-2.49,0.47c-0.35,0.31-0.53,0.93-0.53,1.86v11.4c2.43,0.03,4.08-0.48,4.94-1.53
			c0.86-1.05,1.52-2.97,1.98-5.76h1.08v16.64h-1.08c-0.31-2.8-0.93-4.78-1.87-5.93c-0.94-1.15-2.62-1.72-5.05-1.72v11.93
			c0,1.04,0.23,1.75,0.7,2.13c0.47,0.38,1.42,0.57,2.87,0.57c2.72,0,4.95-0.61,6.67-1.83c1.72-1.22,3.25-3.5,4.59-6.85h1.19
			l-1.73,10.24H61.65z"/>
		<path class="st3" d="M92.33,441.18c1.03-0.08,1.86-0.62,2.48-1.61c0.4-0.63,0.98-2,1.73-4.14l9.48-26.95h1.19l9.53,25.87
			c1.07,2.9,1.87,4.77,2.4,5.61s1.28,1.25,2.25,1.21v1.25h-13.82v-1.25c1.39-0.06,2.3-0.2,2.74-0.41c0.44-0.21,0.66-0.74,0.66-1.59
			c0-0.38-0.11-0.97-0.33-1.76c-0.14-0.46-0.33-1.03-0.56-1.68l-1.09-2.98H99.4c-0.63,1.96-1.03,3.23-1.21,3.82
			c-0.38,1.27-0.56,2.19-0.56,2.77c0,0.71,0.41,1.22,1.23,1.54c0.49,0.18,1.22,0.27,2.19,0.29v1.25h-8.71V441.18z M108.36,430.82
			l-4.11-11.4h-0.36l-3.85,11.4H108.36z"/>
		<path class="st3" d="M139.63,409.15v1.25c-1.65,0.06-2.76,0.36-3.31,0.89c-0.56,0.53-0.83,1.73-0.83,3.61v16.5
			c0,2.51,0.26,4.44,0.77,5.81c0.93,2.54,2.72,3.81,5.36,3.81c3.28,0,5.5-1.4,6.65-4.21c0.64-1.54,0.96-3.7,0.96-6.47v-15.07
			c0-1.76-0.28-2.98-0.84-3.64c-0.56-0.67-1.66-1.07-3.3-1.21v-1.25h9.38v1.25c-1.36,0.3-2.26,0.68-2.7,1.12
			c-0.44,0.44-0.66,1.45-0.66,3.04v15.75c0,4.18-0.88,7.41-2.63,9.69c-1.75,2.28-4.5,3.41-8.25,3.41c-4.91,0-8.26-1.69-10.07-5.08
			c-0.96-1.8-1.44-4.12-1.44-6.96V414.9c0-1.85-0.21-3.01-0.64-3.49c-0.42-0.48-1.38-0.81-2.87-1v-1.25H139.63z"/>
		<path class="st3" d="M158.61,409.15h25.7l0.04,9.93h-1.23c-0.4-3.55-1.56-5.96-3.46-7.21c-1.07-0.69-2.67-1.07-4.79-1.13v25.94
			c0,1.81,0.27,3.02,0.82,3.61c0.55,0.59,1.69,0.89,3.43,0.89v1.25H163.9v-1.25c1.67,0,2.78-0.3,3.32-0.9
			c0.55-0.6,0.82-1.8,0.82-3.6v-25.94c-2.08,0.06-3.68,0.44-4.79,1.13c-2.04,1.29-3.2,3.69-3.46,7.21h-1.23L158.61,409.15z"/>
		<path class="st3" d="M202.99,409.15v1.25c-1.47,0.1-2.42,0.22-2.83,0.38c-0.42,0.16-0.63,0.5-0.63,1.01
			c0,0.22,0.04,0.47,0.11,0.73c0.08,0.26,0.25,0.74,0.53,1.43l5.64,11.83h0.05l4.58-8.66c0.29-0.53,0.6-1.18,0.92-1.95
			c0.49-1.17,0.73-2.04,0.73-2.6c0-0.87-0.3-1.44-0.9-1.73c-0.4-0.19-1.29-0.34-2.67-0.46v-1.25h9.38v1.25
			c-0.68,0.14-1.22,0.31-1.63,0.5c-0.51,0.3-0.95,0.77-1.29,1.4l-8.15,15.32v9.07c0,1.88,0.28,3.08,0.83,3.62
			c0.55,0.54,1.59,0.83,3.11,0.88v1.25h-14.8v-1.25c1.58-0.05,2.64-0.36,3.16-0.94c0.52-0.58,0.78-1.76,0.78-3.56v-7.24l-7.8-16.35
			c-0.51-1.07-1.15-1.83-1.9-2.26c-0.5-0.27-1.01-0.42-1.52-0.43v-1.25H202.99z"/>
		<path class="st3" d="M254.2,409.67c1.82,0.76,2.83,1.14,3.04,1.14c0.54,0,0.98-0.24,1.3-0.72c0.33-0.48,0.53-0.99,0.61-1.51h1.19
			v11.52h-1.08c-1.03-2.5-2.07-4.47-3.14-5.92c-2-2.66-4.26-3.99-6.79-3.99c-2.86,0-4.89,1.42-6.09,4.27
			c-1.2,2.85-1.8,6.66-1.8,11.46c0,3.53,0.35,6.43,1.06,8.7c1.32,4.26,3.77,6.4,7.35,6.4c2.19,0,4.23-0.7,6.12-2.12
			c1.08-0.82,2.36-2.12,3.83-3.92l1.27,1.2c-1.67,2.15-3.13,3.7-4.4,4.66c-2.25,1.72-4.75,2.57-7.5,2.57
			c-4.21,0-7.74-1.44-10.59-4.33c-3.15-3.19-4.73-7.49-4.73-12.89c0-5.35,1.51-9.69,4.52-13.01c2.83-3.11,6.31-4.66,10.42-4.66
			C250.58,408.53,252.38,408.91,254.2,409.67z"/>
		<path class="st3" d="M265.94,441.25c0.75-0.21,1.28-0.48,1.59-0.83c0.31-0.34,0.47-1.06,0.47-2.15v-25.08
			c0-1.05-0.15-1.74-0.44-2.06c-0.29-0.32-0.83-0.59-1.63-0.8v-1.18h8.09v29.12c0,1.09,0.15,1.8,0.46,2.14
			c0.31,0.34,0.85,0.62,1.63,0.84v1.18h-10.17V441.25z"/>
		<path class="st3" d="M279.93,441.18c1.21-0.03,2.08-0.2,2.6-0.51c0.86-0.51,1.29-1.5,1.29-2.96v-23.85c0-1.45-0.41-2.42-1.23-2.91
			c-0.5-0.3-1.39-0.49-2.67-0.55v-1.25h14.92v1.25c-1.33,0.06-2.25,0.24-2.75,0.53c-0.83,0.49-1.25,1.47-1.25,2.94v23.85
			c0,1.38,0.33,2.3,1,2.77c0.67,0.47,1.67,0.7,3,0.7v1.25h-14.92V441.18z"/>
		<path class="st3" d="M298.68,441.18c1.58-0.05,2.6-0.4,3.06-1.05c0.46-0.65,0.69-1.61,0.69-2.87v-23.32
			c-1.31-1.68-2.11-2.67-2.42-2.97c-0.31-0.3-0.72-0.48-1.25-0.56v-1.25h9.05l14.67,20.57h0.21v-14.47c0-1.67-0.26-2.86-0.79-3.57
			c-0.53-0.71-1.58-1.14-3.15-1.29v-1.25h9.17v1.25c-1.33,0.25-2.23,0.6-2.68,1.03c-0.45,0.43-0.68,1.39-0.68,2.89v29.02h-1.19
			l-18.78-26.33h-0.29v19.31c0,1.51,0.18,2.59,0.54,3.21c0.57,1.02,1.74,1.56,3.5,1.64v1.25h-9.67V441.18z"/>
		<path class="st3" d="M331.64,441.18c1.21-0.03,2.08-0.2,2.6-0.51c0.86-0.51,1.29-1.5,1.29-2.96v-23.85c0-1.45-0.41-2.42-1.23-2.91
			c-0.5-0.3-1.39-0.49-2.67-0.55v-1.25h14.92v1.25c-1.33,0.06-2.25,0.24-2.75,0.53c-0.83,0.49-1.25,1.47-1.25,2.94v23.85
			c0,1.38,0.33,2.3,1,2.77c0.67,0.47,1.67,0.7,3,0.7v1.25h-14.92V441.18z"/>
		<path class="st3" d="M371.6,409.67c1.82,0.76,2.83,1.14,3.04,1.14c0.54,0,0.98-0.24,1.3-0.72c0.33-0.48,0.53-0.99,0.61-1.51h1.19
			v11.52h-1.08c-1.03-2.5-2.07-4.47-3.14-5.92c-2-2.66-4.26-3.99-6.79-3.99c-2.86,0-4.89,1.42-6.09,4.27
			c-1.2,2.85-1.8,6.66-1.8,11.46c0,3.53,0.35,6.43,1.06,8.7c1.32,4.26,3.77,6.4,7.35,6.4c2.19,0,4.23-0.7,6.12-2.12
			c1.08-0.82,2.36-2.12,3.83-3.92l1.27,1.2c-1.67,2.15-3.13,3.7-4.4,4.66c-2.25,1.72-4.75,2.57-7.5,2.57
			c-4.21,0-7.74-1.44-10.59-4.33c-3.15-3.19-4.73-7.49-4.73-12.89c0-5.35,1.51-9.69,4.52-13.01c2.83-3.11,6.31-4.66,10.42-4.66
			C367.98,408.53,369.78,408.91,371.6,409.67z"/>
	</g>
</g>
<g>
</g>
<g>
</g>
<g>
</g>
<g>
</g>
<g>
</g>
<g>
</g>
</svg>
